<mxfile host="app.diagrams.net" modified="2023-07-08T05:57:22.482Z" agent="Mozilla/5.0 (Windows NT 10.0; Win64; x64) AppleWebKit/537.36 (KHTML, like Gecko) Chrome/114.0.0.0 Safari/537.36" etag="pseUGgcDbJvE9X1Nv9gp" version="21.6.1" type="google">
  <diagram name="Page-1" id="-r8x5bYKAk_hf6ACuxOh">
    <mxGraphModel grid="1" page="1" gridSize="10" guides="1" tooltips="1" connect="1" arrows="1" fold="1" pageScale="1" pageWidth="850" pageHeight="1100" math="0" shadow="0">
      <root>
        <mxCell id="0" />
        <mxCell id="1" parent="0" />
        <mxCell id="YFATefIhtT_2nQkfkwMd-1" value="Admin" style="shape=umlActor;verticalLabelPosition=bottom;verticalAlign=top;html=1;outlineConnect=0;" vertex="1" parent="1">
          <mxGeometry x="30" y="450" width="30" height="60" as="geometry" />
        </mxCell>
        <mxCell id="YFATefIhtT_2nQkfkwMd-7" value="" style="swimlane;startSize=0;" vertex="1" parent="1">
          <mxGeometry x="95" y="60" width="660" height="1080" as="geometry" />
        </mxCell>
        <mxCell id="YFATefIhtT_2nQkfkwMd-8" value="Register" style="ellipse;whiteSpace=wrap;html=1;" vertex="1" parent="YFATefIhtT_2nQkfkwMd-7">
          <mxGeometry x="230" y="70" width="95" height="50" as="geometry" />
        </mxCell>
        <mxCell id="YFATefIhtT_2nQkfkwMd-9" value="Login" style="ellipse;whiteSpace=wrap;html=1;" vertex="1" parent="YFATefIhtT_2nQkfkwMd-7">
          <mxGeometry x="215" y="170" width="145" height="50" as="geometry" />
        </mxCell>
        <mxCell id="YFATefIhtT_2nQkfkwMd-10" value="Create Batch" style="ellipse;whiteSpace=wrap;html=1;" vertex="1" parent="YFATefIhtT_2nQkfkwMd-7">
          <mxGeometry x="151.25" y="260" width="106.25" height="60" as="geometry" />
        </mxCell>
        <mxCell id="YFATefIhtT_2nQkfkwMd-11" value="Create Course" style="ellipse;whiteSpace=wrap;html=1;" vertex="1" parent="YFATefIhtT_2nQkfkwMd-7">
          <mxGeometry x="151.25" y="350" width="106.25" height="60" as="geometry" />
        </mxCell>
        <mxCell id="YFATefIhtT_2nQkfkwMd-22" value="Scheduling" style="ellipse;whiteSpace=wrap;html=1;" vertex="1" parent="YFATefIhtT_2nQkfkwMd-7">
          <mxGeometry x="295" y="310" width="106.25" height="60" as="geometry" />
        </mxCell>
        <mxCell id="YFATefIhtT_2nQkfkwMd-23" value="Include" style="html=1;verticalAlign=bottom;endArrow=open;dashed=1;endSize=8;elbow=vertical;rounded=0;exitX=0;exitY=0;exitDx=0;exitDy=0;entryX=1;entryY=0.5;entryDx=0;entryDy=0;" edge="1" parent="YFATefIhtT_2nQkfkwMd-7" source="YFATefIhtT_2nQkfkwMd-22" target="YFATefIhtT_2nQkfkwMd-10">
          <mxGeometry relative="1" as="geometry">
            <mxPoint x="400" y="292.5" as="sourcePoint" />
            <mxPoint x="315" y="307.5" as="targetPoint" />
          </mxGeometry>
        </mxCell>
        <mxCell id="YFATefIhtT_2nQkfkwMd-24" value="Include" style="html=1;verticalAlign=bottom;endArrow=open;dashed=1;endSize=8;elbow=vertical;rounded=0;exitX=0.094;exitY=0.783;exitDx=0;exitDy=0;entryX=1;entryY=0.5;entryDx=0;entryDy=0;exitPerimeter=0;" edge="1" parent="YFATefIhtT_2nQkfkwMd-7" source="YFATefIhtT_2nQkfkwMd-22" target="YFATefIhtT_2nQkfkwMd-11">
          <mxGeometry relative="1" as="geometry">
            <mxPoint x="435" y="470" as="sourcePoint" />
            <mxPoint x="335" y="448" as="targetPoint" />
          </mxGeometry>
        </mxCell>
        <mxCell id="YFATefIhtT_2nQkfkwMd-25" value="Assign Trainers to Batch &amp;amp; Courses" style="ellipse;whiteSpace=wrap;html=1;" vertex="1" parent="YFATefIhtT_2nQkfkwMd-7">
          <mxGeometry x="232.5" y="430" width="120" height="60" as="geometry" />
        </mxCell>
        <mxCell id="YFATefIhtT_2nQkfkwMd-26" value="Assignment Creation" style="ellipse;whiteSpace=wrap;html=1;" vertex="1" parent="YFATefIhtT_2nQkfkwMd-7">
          <mxGeometry x="235" y="590" width="120" height="60" as="geometry" />
        </mxCell>
        <mxCell id="YFATefIhtT_2nQkfkwMd-27" value="Assignment Upload" style="ellipse;whiteSpace=wrap;html=1;" vertex="1" parent="YFATefIhtT_2nQkfkwMd-7">
          <mxGeometry x="235" y="740" width="120" height="60" as="geometry" />
        </mxCell>
        <mxCell id="YFATefIhtT_2nQkfkwMd-28" value="Upload Post" style="ellipse;whiteSpace=wrap;html=1;" vertex="1" parent="YFATefIhtT_2nQkfkwMd-7">
          <mxGeometry x="250" y="840" width="105" height="40" as="geometry" />
        </mxCell>
        <mxCell id="YFATefIhtT_2nQkfkwMd-29" value="Comment" style="ellipse;whiteSpace=wrap;html=1;" vertex="1" parent="YFATefIhtT_2nQkfkwMd-7">
          <mxGeometry x="257.5" y="910" width="82.5" height="40" as="geometry" />
        </mxCell>
        <mxCell id="YFATefIhtT_2nQkfkwMd-30" value="Give Notice" style="ellipse;whiteSpace=wrap;html=1;" vertex="1" parent="YFATefIhtT_2nQkfkwMd-7">
          <mxGeometry x="245" y="980" width="125" height="50" as="geometry" />
        </mxCell>
        <mxCell id="YFATefIhtT_2nQkfkwMd-35" value="Set Deadline" style="ellipse;whiteSpace=wrap;html=1;" vertex="1" parent="YFATefIhtT_2nQkfkwMd-7">
          <mxGeometry x="235" y="660" width="120" height="60" as="geometry" />
        </mxCell>
        <mxCell id="YFATefIhtT_2nQkfkwMd-31" value="Classroom" style="ellipse;whiteSpace=wrap;html=1;" vertex="1" parent="YFATefIhtT_2nQkfkwMd-7">
          <mxGeometry x="65" y="920" width="95" height="50" as="geometry" />
        </mxCell>
        <mxCell id="YFATefIhtT_2nQkfkwMd-32" value="Include" style="html=1;verticalAlign=bottom;endArrow=open;dashed=1;endSize=8;elbow=vertical;rounded=0;exitX=0.008;exitY=0.38;exitDx=0;exitDy=0;entryX=0.642;entryY=1;entryDx=0;entryDy=0;exitPerimeter=0;entryPerimeter=0;" edge="1" parent="YFATefIhtT_2nQkfkwMd-7" source="YFATefIhtT_2nQkfkwMd-30" target="YFATefIhtT_2nQkfkwMd-31">
          <mxGeometry relative="1" as="geometry">
            <mxPoint x="155" y="950" as="sourcePoint" />
            <mxPoint x="86" y="983" as="targetPoint" />
          </mxGeometry>
        </mxCell>
        <mxCell id="YFATefIhtT_2nQkfkwMd-33" value="Include" style="html=1;verticalAlign=bottom;endArrow=open;dashed=1;endSize=8;elbow=vertical;rounded=0;entryX=0.684;entryY=-0.02;entryDx=0;entryDy=0;entryPerimeter=0;" edge="1" parent="YFATefIhtT_2nQkfkwMd-7" source="YFATefIhtT_2nQkfkwMd-28" target="YFATefIhtT_2nQkfkwMd-31">
          <mxGeometry relative="1" as="geometry">
            <mxPoint x="215" y="710" as="sourcePoint" />
            <mxPoint x="146" y="743" as="targetPoint" />
          </mxGeometry>
        </mxCell>
        <mxCell id="YFATefIhtT_2nQkfkwMd-34" value="Include" style="html=1;verticalAlign=bottom;endArrow=open;dashed=1;endSize=8;elbow=vertical;rounded=0;entryX=1;entryY=0.5;entryDx=0;entryDy=0;" edge="1" parent="YFATefIhtT_2nQkfkwMd-7" source="YFATefIhtT_2nQkfkwMd-29" target="YFATefIhtT_2nQkfkwMd-31">
          <mxGeometry relative="1" as="geometry">
            <mxPoint x="225" y="820" as="sourcePoint" />
            <mxPoint x="156" y="853" as="targetPoint" />
          </mxGeometry>
        </mxCell>
        <mxCell id="YFATefIhtT_2nQkfkwMd-43" value="Assign Trainees to Batches" style="ellipse;whiteSpace=wrap;html=1;" vertex="1" parent="YFATefIhtT_2nQkfkwMd-7">
          <mxGeometry x="232.5" y="510" width="120" height="60" as="geometry" />
        </mxCell>
        <mxCell id="YFATefIhtT_2nQkfkwMd-36" value="Trainer" style="shape=umlActor;verticalLabelPosition=bottom;verticalAlign=top;html=1;outlineConnect=0;" vertex="1" parent="1">
          <mxGeometry x="790" y="360" width="30" height="60" as="geometry" />
        </mxCell>
        <mxCell id="YFATefIhtT_2nQkfkwMd-37" value="Trainee" style="shape=umlActor;verticalLabelPosition=bottom;verticalAlign=top;html=1;outlineConnect=0;" vertex="1" parent="1">
          <mxGeometry x="800" y="650" width="30" height="60" as="geometry" />
        </mxCell>
        <mxCell id="YFATefIhtT_2nQkfkwMd-40" value="" style="endArrow=none;html=1;rounded=0;entryX=0;entryY=0.5;entryDx=0;entryDy=0;" edge="1" parent="1" source="YFATefIhtT_2nQkfkwMd-1" target="YFATefIhtT_2nQkfkwMd-9">
          <mxGeometry width="50" height="50" relative="1" as="geometry">
            <mxPoint x="160" y="400" as="sourcePoint" />
            <mxPoint x="210" y="350" as="targetPoint" />
          </mxGeometry>
        </mxCell>
        <mxCell id="YFATefIhtT_2nQkfkwMd-41" value="" style="endArrow=none;html=1;rounded=0;exitX=1;exitY=0.3333333333333333;exitDx=0;exitDy=0;exitPerimeter=0;entryX=0;entryY=0.5;entryDx=0;entryDy=0;" edge="1" parent="1" source="YFATefIhtT_2nQkfkwMd-1" target="YFATefIhtT_2nQkfkwMd-10">
          <mxGeometry width="50" height="50" relative="1" as="geometry">
            <mxPoint x="180" y="500" as="sourcePoint" />
            <mxPoint x="230" y="450" as="targetPoint" />
          </mxGeometry>
        </mxCell>
        <mxCell id="YFATefIhtT_2nQkfkwMd-42" value="" style="endArrow=none;html=1;rounded=0;exitX=1;exitY=0.3333333333333333;exitDx=0;exitDy=0;exitPerimeter=0;entryX=0.026;entryY=0.617;entryDx=0;entryDy=0;entryPerimeter=0;" edge="1" parent="1" source="YFATefIhtT_2nQkfkwMd-1" target="YFATefIhtT_2nQkfkwMd-11">
          <mxGeometry width="50" height="50" relative="1" as="geometry">
            <mxPoint x="190" y="575" as="sourcePoint" />
            <mxPoint x="240" y="525" as="targetPoint" />
          </mxGeometry>
        </mxCell>
        <mxCell id="YFATefIhtT_2nQkfkwMd-44" value="" style="endArrow=none;html=1;rounded=0;exitX=1;exitY=0.3333333333333333;exitDx=0;exitDy=0;exitPerimeter=0;entryX=0.021;entryY=0.333;entryDx=0;entryDy=0;entryPerimeter=0;" edge="1" parent="1" source="YFATefIhtT_2nQkfkwMd-1" target="YFATefIhtT_2nQkfkwMd-25">
          <mxGeometry width="50" height="50" relative="1" as="geometry">
            <mxPoint x="170" y="560" as="sourcePoint" />
            <mxPoint x="220" y="510" as="targetPoint" />
          </mxGeometry>
        </mxCell>
        <mxCell id="YFATefIhtT_2nQkfkwMd-45" value="" style="endArrow=none;html=1;rounded=0;exitX=0.5;exitY=0.5;exitDx=0;exitDy=0;exitPerimeter=0;entryX=0;entryY=0.5;entryDx=0;entryDy=0;" edge="1" parent="1" source="YFATefIhtT_2nQkfkwMd-1" target="YFATefIhtT_2nQkfkwMd-43">
          <mxGeometry width="50" height="50" relative="1" as="geometry">
            <mxPoint x="190" y="650" as="sourcePoint" />
            <mxPoint x="460" y="690" as="targetPoint" />
          </mxGeometry>
        </mxCell>
        <mxCell id="YFATefIhtT_2nQkfkwMd-46" value="" style="endArrow=none;html=1;rounded=0;entryX=0;entryY=0.3333333333333333;entryDx=0;entryDy=0;entryPerimeter=0;exitX=1;exitY=0.5;exitDx=0;exitDy=0;" edge="1" parent="1" source="YFATefIhtT_2nQkfkwMd-8" target="YFATefIhtT_2nQkfkwMd-36">
          <mxGeometry width="50" height="50" relative="1" as="geometry">
            <mxPoint x="400" y="340" as="sourcePoint" />
            <mxPoint x="450" y="290" as="targetPoint" />
          </mxGeometry>
        </mxCell>
        <mxCell id="YFATefIhtT_2nQkfkwMd-47" value="" style="endArrow=none;html=1;rounded=0;entryX=0;entryY=0.3333333333333333;entryDx=0;entryDy=0;entryPerimeter=0;exitX=0.96;exitY=0.7;exitDx=0;exitDy=0;exitPerimeter=0;" edge="1" parent="1" source="YFATefIhtT_2nQkfkwMd-9" target="YFATefIhtT_2nQkfkwMd-36">
          <mxGeometry width="50" height="50" relative="1" as="geometry">
            <mxPoint x="400" y="340" as="sourcePoint" />
            <mxPoint x="450" y="290" as="targetPoint" />
          </mxGeometry>
        </mxCell>
        <mxCell id="YFATefIhtT_2nQkfkwMd-48" value="" style="endArrow=none;html=1;rounded=0;exitX=0;exitY=0.3333333333333333;exitDx=0;exitDy=0;exitPerimeter=0;entryX=0.975;entryY=0.333;entryDx=0;entryDy=0;entryPerimeter=0;" edge="1" parent="1" source="YFATefIhtT_2nQkfkwMd-36" target="YFATefIhtT_2nQkfkwMd-26">
          <mxGeometry width="50" height="50" relative="1" as="geometry">
            <mxPoint x="400" y="540" as="sourcePoint" />
            <mxPoint x="450" y="490" as="targetPoint" />
          </mxGeometry>
        </mxCell>
        <mxCell id="YFATefIhtT_2nQkfkwMd-49" value="" style="endArrow=none;html=1;rounded=0;entryX=1;entryY=0.5;entryDx=0;entryDy=0;" edge="1" parent="1" target="YFATefIhtT_2nQkfkwMd-35">
          <mxGeometry width="50" height="50" relative="1" as="geometry">
            <mxPoint x="790" y="380" as="sourcePoint" />
            <mxPoint x="450" y="390" as="targetPoint" />
          </mxGeometry>
        </mxCell>
        <mxCell id="YFATefIhtT_2nQkfkwMd-50" value="" style="endArrow=none;html=1;rounded=0;exitX=1;exitY=0.5;exitDx=0;exitDy=0;" edge="1" parent="1" source="YFATefIhtT_2nQkfkwMd-28" target="YFATefIhtT_2nQkfkwMd-36">
          <mxGeometry width="50" height="50" relative="1" as="geometry">
            <mxPoint x="400" y="640" as="sourcePoint" />
            <mxPoint x="450" y="590" as="targetPoint" />
          </mxGeometry>
        </mxCell>
        <mxCell id="YFATefIhtT_2nQkfkwMd-51" value="" style="endArrow=none;html=1;rounded=0;exitX=0.952;exitY=0.22;exitDx=0;exitDy=0;exitPerimeter=0;" edge="1" parent="1" source="YFATefIhtT_2nQkfkwMd-30" target="YFATefIhtT_2nQkfkwMd-36">
          <mxGeometry width="50" height="50" relative="1" as="geometry">
            <mxPoint x="610" y="760" as="sourcePoint" />
            <mxPoint x="660" y="710" as="targetPoint" />
          </mxGeometry>
        </mxCell>
        <mxCell id="YFATefIhtT_2nQkfkwMd-52" value="" style="endArrow=none;html=1;rounded=0;entryX=0;entryY=0.3333333333333333;entryDx=0;entryDy=0;entryPerimeter=0;exitX=1;exitY=0.5;exitDx=0;exitDy=0;" edge="1" parent="1" source="YFATefIhtT_2nQkfkwMd-29" target="YFATefIhtT_2nQkfkwMd-37">
          <mxGeometry width="50" height="50" relative="1" as="geometry">
            <mxPoint x="435" y="980" as="sourcePoint" />
            <mxPoint x="825" y="642.962962962963" as="targetPoint" />
          </mxGeometry>
        </mxCell>
        <mxCell id="YFATefIhtT_2nQkfkwMd-53" value="" style="endArrow=none;html=1;rounded=0;entryX=0;entryY=0.3333333333333333;entryDx=0;entryDy=0;entryPerimeter=0;exitX=0.917;exitY=0.25;exitDx=0;exitDy=0;exitPerimeter=0;" edge="1" parent="1" source="YFATefIhtT_2nQkfkwMd-27" target="YFATefIhtT_2nQkfkwMd-37">
          <mxGeometry width="50" height="50" relative="1" as="geometry">
            <mxPoint x="400" y="840" as="sourcePoint" />
            <mxPoint x="450" y="790" as="targetPoint" />
          </mxGeometry>
        </mxCell>
        <mxCell id="YFATefIhtT_2nQkfkwMd-54" value="" style="endArrow=none;html=1;rounded=0;entryX=0;entryY=0.3333333333333333;entryDx=0;entryDy=0;entryPerimeter=0;exitX=0.926;exitY=0.78;exitDx=0;exitDy=0;exitPerimeter=0;" edge="1" parent="1" source="YFATefIhtT_2nQkfkwMd-8" target="YFATefIhtT_2nQkfkwMd-37">
          <mxGeometry width="50" height="50" relative="1" as="geometry">
            <mxPoint x="400" y="540" as="sourcePoint" />
            <mxPoint x="450" y="490" as="targetPoint" />
          </mxGeometry>
        </mxCell>
        <mxCell id="YFATefIhtT_2nQkfkwMd-55" value="" style="endArrow=none;html=1;rounded=0;entryX=0;entryY=0.3333333333333333;entryDx=0;entryDy=0;entryPerimeter=0;exitX=1;exitY=1;exitDx=0;exitDy=0;" edge="1" parent="1" source="YFATefIhtT_2nQkfkwMd-9" target="YFATefIhtT_2nQkfkwMd-37">
          <mxGeometry width="50" height="50" relative="1" as="geometry">
            <mxPoint x="400" y="540" as="sourcePoint" />
            <mxPoint x="450" y="490" as="targetPoint" />
          </mxGeometry>
        </mxCell>
      </root>
    </mxGraphModel>
  </diagram>
</mxfile>
